<svg id="logo" xmlns="http://www.w3.org/2000/svg" viewBox="0 0 1799.31 502.96"><defs><style>.cls-1{fill:#002449;}.cls-2{fill:#0080ff;}</style></defs><title>cluber_logo</title><g id="imago"><path id="contorno" class="cls-1" d="M321.65,135.4v50.51c-62.42,9.55-112,39.55-146,93.35-24,37.86-34.11,79.62-30,124.25,9.07,97.54,82.39,169,171.35,181.32,55.63,7.72,106.1-5.65,150.53-40s69.16-80.4,76.8-135.91h48.18C585.72,519,491.73,633.7,349.9,637.59c-147.77,4-262.85-116.71-257.7-259.12C97.75,224.85,222.81,140.54,321.65,135.4Z" transform="translate(-92.03 -134.73)"/><path id="letra_c" class="cls-1" d="M342.32,493.3c27.92-.9,52.05-10.52,72.63-29.36,5-4.61,10.18-9.26,17.32-10.73A26.52,26.52,0,0,1,457.56,497c-9.9,10.87-21.69,19.4-34.3,26.77A156.88,156.88,0,0,1,352.94,545c-83.44,5.23-155.26-55.09-166.66-136.12-11.64-82.72,41-159.75,122.43-178.29,48.77-11.11,93.35-.36,133,30.27a177.51,177.51,0,0,1,13.81,12.05c11.39,10.85,12.08,27.12,1.79,38.14-10.11,10.83-26.23,11.21-37.77.71-16.13-14.68-34.05-25.77-55.72-30.45-57.63-12.45-116.2,26.89-126.33,85.16C227.44,424.29,262.86,477.63,320,490.34,327.28,492,334.87,492.34,342.32,493.3Z" transform="translate(-92.03 -134.73)"/><path id="acento" class="cls-2" d="M594.72,365.92H546.13c-5.49-47.6-24.4-88.73-58.12-122.54s-74.78-52.48-122.23-57.74V135a24.45,24.45,0,0,1,2.55-.25q93.8,0,187.58.06c18.51,0,33.8,11.64,38.36,29.05a17.16,17.16,0,0,1,.57,4.22q0,97.41,0,194.82C594.86,363.64,594.79,364.41,594.72,365.92Z" transform="translate(-92.03 -134.73)"/></g><g id="texto"><path id="ce" class="cls-1" d="M877,302.45q26.24,21.19,32.62,57.56H864.24q-3.76-19.49-18.19-30.56t-36.19-11.06q-24.75,0-41.25,17.44T752.11,387q0,33.75,16.5,51.38T809.86,456q21.75,0,36.19-11.25T864.24,414h45.37Q903.24,450.4,877,471.76t-66.38,21.38q-30,0-53.06-12.75a90.66,90.66,0,0,1-36.19-36.75q-13.12-24-13.12-56.63,0-32.24,13.12-56.25A90.78,90.78,0,0,1,757.55,294q23.06-12.74,53.06-12.75Q850.74,281.26,877,302.45Z" transform="translate(-92.03 -134.73)"/><path id="ele" class="cls-1" d="M993.61,213v277.5H950.86V213Z" transform="translate(-92.03 -134.73)"/><path id="u" class="cls-1" d="M1235.86,283.89V490.51h-43.13v-45q-7.87,22.89-27.37,35.44T1120,493.51q-36,0-57.75-23.25t-21.75-66.37v-120h42.75v115.5q0,28.13,14.25,43.31t39,15.19q25.5,0,40.88-16.5t15.37-48V283.89Z" transform="translate(-92.03 -134.73)"/><path id="be" class="cls-1" d="M1453.91,294q21.19,12.76,33.19,36.75t12,56.25q0,32.63-12,56.63t-33.19,36.75q-21.18,12.75-48.18,12.75-28.12,0-48-13.88A72.43,72.43,0,0,1,1330,442.51v48h-42.75V213H1330V331.89a72.51,72.51,0,0,1,27.75-36.75q19.86-13.87,48-13.88Q1432.73,281.26,1453.91,294Zm-93.56,33.19a59.7,59.7,0,0,0-22.5,24q-8.25,15.57-8.25,35.81,0,20.64,8.25,36a59.92,59.92,0,0,0,22.5,23.82,62.13,62.13,0,0,0,32.25,8.43q28.5,0,45.75-18.18T1455.6,387q0-31.5-17.25-49.87t-45.75-18.38A62.14,62.14,0,0,0,1360.35,327.2Z" transform="translate(-92.03 -134.73)"/><path id="e" class="cls-1" d="M1730.85,395.64h-159q1.13,31.88,17.62,47.25t40.88,15.37q21.38,0,36.18-10.87a44.89,44.89,0,0,0,18.19-28.88h45.75a88.91,88.91,0,0,1-17.25,38.63Q1700.1,474,1679.1,483.58t-46.88,9.56q-30,0-53.06-12.75A90.66,90.66,0,0,1,1543,443.64q-13.12-24-13.12-56.63,0-32.24,13.12-56.25A90.78,90.78,0,0,1,1579.16,294q23.05-12.74,53.06-12.75,30.38,0,53.06,12.57a87.41,87.41,0,0,1,34.88,34.5q12.18,21.93,12.19,48.93A100.08,100.08,0,0,1,1730.85,395.64Zm-48.57-53.44a48.23,48.23,0,0,0-21-20.25,64.86,64.86,0,0,0-29.06-6.56q-25.12,0-42,15.37t-18.37,45.38h117.37Q1690,355.89,1682.28,342.2Z" transform="translate(-92.03 -134.73)"/><path id="erre" class="cls-1" d="M1846.34,292.33q19.5-11.82,45-11.82V327h-12.75q-28.12,0-45.18,13.69t-17.07,45.19V490.51h-42.75V283.89h42.75v40.5A79.65,79.65,0,0,1,1846.34,292.33Z" transform="translate(-92.03 -134.73)"/></g></svg>