<?xml version="1.0" standalone="no"?>
<!DOCTYPE svg PUBLIC "-//W3C//DTD SVG 20010904//EN"
 "http://www.w3.org/TR/2001/REC-SVG-20010904/DTD/svg10.dtd">
<svg version="1.0" xmlns="http://www.w3.org/2000/svg"
 width="154.000000pt" height="151.000000pt" viewBox="0 0 154.000000 151.000000"
 preserveAspectRatio="xMidYMid meet">

<g transform="translate(0.000000,151.000000) scale(0.100000,-0.100000)"
fill="#000000" stroke="none">
<path d="M754 1394 c12 -11 16 -35 16 -85 0 -45 4 -69 11 -69 8 0 10 16 5 53
-3 28 -6 67 -6 85 0 26 -4 32 -21 32 -19 0 -19 -1 -5 -16z"/>
<path d="M679 1368 c4 -17 12 -33 18 -35 9 -3 9 5 1 31 -14 45 -28 47 -19 4z"/>
<path d="M942 1379 c35 -12 59 -28 63 -39 3 -10 -3 -43 -13 -74 -10 -31 -16
-56 -11 -56 10 0 39 89 39 122 0 31 -30 50 -100 62 -24 4 -17 -1 22 -15z"/>
<path d="M532 1350 c13 -8 16 -19 11 -40 -3 -20 -1 -30 6 -30 8 0 11 13 9 37
-2 29 -8 39 -23 41 -18 2 -18 2 -3 -8z"/>
<path d="M1100 1326 c0 -3 25 -19 55 -36 60 -34 64 -43 38 -74 -10 -12 -4 -9
11 5 16 15 26 32 22 37 -7 11 -108 72 -120 72 -3 0 -6 -2 -6 -4z"/>
<path d="M860 1294 c-13 -34 -15 -32 27 -43 46 -13 55 -7 12 8 -27 9 -30 14
-25 36 8 33 -2 32 -14 -1z"/>
<path d="M682 1250 c0 -19 2 -27 5 -17 2 9 2 25 0 35 -3 9 -5 1 -5 -18z"/>
<path d="M346 1238 c4 -7 24 -36 45 -64 20 -27 39 -59 41 -70 4 -17 6 -17 12
-3 5 12 -8 38 -40 83 -26 36 -52 66 -56 66 -5 0 -6 -6 -2 -12z"/>
<path d="M455 1220 c9 -16 20 -30 26 -30 5 0 3 14 -6 30 -9 17 -20 30 -26 30
-5 0 -3 -13 6 -30z"/>
<path d="M583 1229 c15 -9 16 -13 5 -27 -12 -15 -11 -16 5 -3 24 19 21 41 -5
41 -21 -1 -21 -2 -5 -11z"/>
<path d="M798 1213 c7 -3 16 -2 19 1 4 3 -2 6 -13 5 -11 0 -14 -3 -6 -6z"/>
<path d="M838 1213 c7 -3 16 -2 19 1 4 3 -2 6 -13 5 -11 0 -14 -3 -6 -6z"/>
<path d="M757 1190 c-11 -13 -10 -13 8 0 18 14 19 14 6 -2 -10 -14 -17 -15
-34 -6 -19 10 -19 8 4 -19 20 -25 33 -31 81 -36 61 -5 148 -41 188 -76 20 -18
17 -17 -15 4 -22 14 -69 34 -104 45 -196 61 -407 -32 -494 -218 -27 -57 -32
-81 -35 -162 -3 -71 0 -105 11 -133 9 -20 12 -37 7 -37 -14 0 -32 61 -37 126
-2 38 2 85 12 125 9 35 18 74 18 86 1 12 5 21 8 20 4 -1 23 21 43 50 23 34 31
53 23 56 -7 3 -3 6 7 6 11 1 34 13 53 27 50 38 135 74 192 81 56 6 62 14 29
37 -36 26 -118 15 -118 -15 0 -6 5 -7 12 -3 7 4 8 3 4 -5 -4 -6 -11 -9 -16 -6
-4 3 -10 0 -12 -7 -3 -8 -20 -11 -46 -9 -35 2 -47 -2 -72 -27 -17 -17 -30 -37
-30 -45 0 -9 -13 -18 -30 -22 -44 -10 -73 -51 -67 -97 4 -28 1 -38 -8 -38 -37
0 -68 -83 -46 -119 7 -10 3 -23 -10 -39 -23 -30 -25 -75 -3 -96 8 -9 11 -16 6
-16 -16 0 -42 36 -42 59 0 13 10 36 21 53 16 22 19 32 10 41 -20 20 -13 76 14
102 13 14 31 25 39 25 9 0 13 6 10 13 -3 10 -39 12 -151 11 -172 -2 -160 7
-169 -133 -30 -470 401 -858 865 -777 338 59 581 314 621 652 11 95 1 227 -20
248 -6 6 -53 12 -116 13 -104 1 -106 1 -100 -20 5 -21 5 -21 -9 -3 -8 11 -15
23 -15 27 0 4 -19 17 -43 28 -38 18 -43 25 -39 49 3 20 -4 33 -24 52 l-28 25
22 -29 c12 -16 22 -36 21 -45 0 -11 -3 -10 -9 5 -12 30 -49 54 -82 54 -22 0
-28 5 -28 20 0 12 -11 32 -25 46 -20 20 -34 25 -63 22 -20 -2 -37 -8 -37 -15
0 -6 -3 -14 -7 -18 -3 -4 -5 1 -4 11 7 45 -118 91 -147 54z m136 -115 c15 -6
16 -10 5 -17 -10 -7 -8 -8 5 -4 54 17 208 -120 191 -170 -4 -14 -3 -15 4 -6 7
10 12 7 20 -15 20 -53 25 -76 13 -69 -6 4 -11 0 -11 -9 0 -11 5 -15 15 -11 12
4 15 -6 15 -62 0 -81 -16 -142 -41 -160 -22 -15 -25 -50 -5 -58 8 -3 26 2 40
11 31 21 56 14 56 -15 0 -12 -4 -19 -9 -16 -15 10 -32 -21 -38 -66 -2 -23 -9
-48 -15 -56 -6 -7 -8 -15 -4 -19 3 -3 6 -1 6 6 0 7 4 10 9 7 5 -3 8 -20 7 -36
-1 -18 2 -29 8 -27 6 2 14 32 17 68 3 35 6 57 7 49 1 -9 15 -24 32 -33 l29
-18 -4 77 c-2 42 -8 81 -13 86 -7 7 -3 17 10 30 14 14 19 29 16 48 -3 16 0 26
5 23 9 -6 5 -45 -8 -75 -6 -15 -2 -18 24 -18 39 0 39 -14 2 -71 -31 -45 -29
-73 5 -86 8 -3 14 -9 14 -14 0 -14 -54 -10 -76 6 -29 22 -34 18 -34 -23 0 -90
-137 -134 -420 -136 -177 -1 -287 13 -357 46 -56 26 -67 41 -59 80 8 44 10
138 2 145 -3 4 -6 -16 -6 -43 0 -44 -3 -52 -29 -67 -29 -17 -81 -23 -81 -9 0
4 11 18 25 30 l25 24 -24 31 c-14 18 -28 44 -31 60 -7 25 -5 27 24 27 25 0 31
4 32 23 1 16 2 18 6 5 5 -19 23 -25 23 -7 0 5 4 8 9 5 4 -3 6 -18 4 -33 -5
-26 -4 -27 9 -9 21 27 48 14 48 -24 0 -16 5 -30 11 -30 7 0 9 10 7 24 -4 19
-1 22 14 18 10 -2 20 2 24 12 7 18 -22 86 -37 86 -5 0 -7 12 -3 28 4 22 3 24
-6 12 -9 -12 -11 -9 -8 17 3 19 0 30 -5 26 -6 -4 -8 19 -5 61 6 75 62 203 86
198 8 -1 11 2 7 8 -10 17 50 71 72 64 14 -4 15 -4 4 4 -11 8 -10 12 8 21 13 7
21 8 21 2 0 -6 7 -8 16 -4 11 4 12 8 4 13 -7 4 4 14 29 24 47 18 65 20 56 6
-3 -5 -1 -10 4 -10 6 0 11 7 11 16 0 15 11 16 88 11 48 -3 95 -8 105 -12z
m240 -127 c5 1 6 -2 2 -8 -4 -6 0 -21 8 -34 45 -67 60 -216 32 -311 -8 -27
-13 -36 -10 -20 29 172 4 290 -87 410 l-30 40 38 -40 c22 -22 43 -39 47 -37z
m92 -13 c26 -25 33 -76 16 -104 -7 -10 -2 -20 15 -33 19 -15 24 -28 23 -61
l-1 -42 -9 40 c-6 25 -21 50 -42 68 -17 16 -25 27 -17 25 20 -4 25 45 10 83
-8 19 -23 32 -44 38 l-31 9 28 1 c17 1 37 -8 52 -24z"/>
<path d="M738 1073 c7 -3 16 -2 19 1 4 3 -2 6 -13 5 -11 0 -14 -3 -6 -6z"/>
<path d="M788 1073 c7 -3 16 -2 19 1 4 3 -2 6 -13 5 -11 0 -14 -3 -6 -6z"/>
<path d="M679 1049 c-33 -12 -84 -83 -73 -101 4 -7 3 -10 -1 -5 -7 6 -23 -26
-42 -86 -4 -12 2 -20 23 -27 21 -7 32 -21 41 -47 15 -50 5 -65 -62 -94 l-56
-24 3 -83 c3 -78 5 -84 33 -107 64 -52 174 -92 204 -75 10 6 11 10 4 10 -24 0
-13 20 10 20 13 0 32 6 42 14 20 15 17 21 -92 155 l-28 34 33 -17 c32 -17 33
-17 23 2 -6 11 -8 22 -4 25 3 3 -2 13 -11 22 -9 9 -14 21 -10 26 3 5 0 8 -8 7
-9 -2 -12 8 -10 37 2 22 7 44 12 49 5 5 4 20 -1 33 -8 21 -7 24 7 19 8 -3 23
-6 32 -6 14 0 14 -2 3 -9 -11 -7 -9 -10 8 -16 27 -8 44 -40 35 -67 -4 -14 -2
-18 5 -14 6 4 11 2 11 -3 0 -6 12 -11 26 -11 26 0 54 -20 54 -39 0 -16 -36
-32 -56 -24 -12 4 -15 3 -10 -5 5 -8 0 -12 -14 -12 -13 0 -20 -5 -17 -12 2 -7
14 -12 26 -11 11 2 21 -2 21 -8 0 -5 5 -7 11 -3 8 4 9 0 4 -15 -3 -11 -1 -29
5 -38 9 -15 10 -14 5 7 -5 23 -4 22 12 -5 9 -16 16 -42 14 -56 -1 -15 4 -33
12 -40 13 -12 13 -16 0 -31 -15 -16 -15 -18 0 -18 9 0 20 15 27 35 9 28 17 35
32 33 32 -5 56 38 63 113 l7 67 -51 11 c-29 6 -59 11 -68 11 -16 0 -16 16 6
102 5 22 5 36 0 32 -5 -3 -9 4 -9 15 0 24 16 36 23 19 3 -8 6 -6 6 5 1 9 -5
17 -13 17 -7 0 -21 10 -30 23 -12 16 -16 17 -12 4 3 -9 0 -28 -6 -42 -8 -19
-8 -31 0 -50 7 -15 8 -27 2 -30 -6 -4 -10 1 -10 10 0 11 -5 15 -15 11 -20 -7
-65 10 -65 25 0 8 4 8 15 -1 12 -10 16 -9 21 3 3 9 12 13 20 10 8 -3 14 0 14
6 0 11 -20 16 -50 13 -8 -1 -45 1 -82 4 -63 6 -67 7 -57 25 18 34 83 59 152
59 49 0 70 5 88 19 35 29 16 51 -72 83 -79 28 -118 32 -160 17z m96 -29 c4 -6
-7 -10 -24 -10 -17 0 -31 -5 -31 -11 0 -5 8 -9 18 -8 23 4 62 -10 62 -22 0 -5
-13 -9 -29 -9 -16 0 -37 -3 -45 -6 -12 -5 -15 -2 -10 10 6 14 2 16 -22 10 -16
-4 -35 -11 -41 -17 -30 -23 -10 9 25 40 37 33 84 44 97 23z m-110 -90 c-3 -5
-13 -10 -21 -10 -8 0 -14 5 -14 10 0 6 9 10 21 10 11 0 17 -4 14 -10z m-23
-120 c-2 -17 0 -30 7 -30 5 0 15 -10 21 -22 10 -21 10 -21 -3 -6 -8 10 -17 15
-20 12 -7 -8 -28 67 -21 78 11 17 21 -2 16 -32z m31 -7 c-3 -7 -10 -13 -15
-13 -6 0 -7 7 -4 16 3 9 6 21 6 27 0 7 4 7 9 -2 5 -8 7 -20 4 -28z m180 -57
c17 -13 16 -14 -3 -19 -11 -3 -20 -4 -20 -2 0 2 -3 10 -6 19 -7 19 5 20 29 2z
m133 -127 c3 -6 -3 -21 -15 -33 -18 -17 -21 -17 -15 -3 3 10 1 17 -5 17 -6 0
-11 7 -11 15 0 17 35 20 46 4z m-387 -70 c-16 -10 -23 -4 -14 10 3 6 11 8 17
5 6 -4 5 -9 -3 -15z m383 -21 c-8 -8 -9 -4 -5 13 4 13 8 18 11 10 2 -7 -1 -18
-6 -23z m-375 -25 c-4 -3 1 -15 10 -25 16 -18 16 -18 -7 -10 -27 10 -36 42
-12 42 8 0 12 -3 9 -7z m163 -17 c0 -2 -7 -9 -15 -16 -12 -10 -15 -10 -15 4 0
9 7 16 15 16 8 0 15 -2 15 -4z"/>
<path d="M808 863 c7 -3 16 -2 19 1 4 3 -2 6 -13 5 -11 0 -14 -3 -6 -6z"/>
<path d="M1112 830 c0 -14 2 -19 5 -12 2 6 2 18 0 25 -3 6 -5 1 -5 -13z"/>
<path d="M734 696 c0 -13 3 -22 5 -20 2 2 11 -2 19 -9 14 -11 9 -1 -24 51 -1
2 -1 -8 0 -22z"/>
<path d="M1131 684 c0 -11 3 -14 6 -6 3 7 2 16 -1 19 -3 4 -6 -2 -5 -13z"/>
<path d="M775 580 c-3 -6 1 -7 9 -4 18 7 21 14 7 14 -6 0 -13 -4 -16 -10z"/>
<path d="M1136 484 c-8 -21 -8 -24 3 -24 12 0 22 28 12 35 -5 3 -12 -2 -15
-11z"/>
<path d="M325 430 c0 -27 3 -50 8 -50 4 0 7 23 7 50 0 28 -3 50 -7 50 -5 0 -8
-22 -8 -50z"/>
<path d="M1061 453 c-25 -30 -21 -39 8 -23 12 6 21 20 21 30 0 26 -4 25 -29
-7z"/>
<path d="M450 451 c0 -10 7 -22 16 -25 29 -11 34 -6 18 19 -19 30 -34 32 -34
6z"/>
<path d="M777 418 c-7 -5 -2 -8 15 -8 15 0 29 4 33 9 6 11 -30 10 -48 -1z"/>
<path d="M371 343 c0 -6 -4 -20 -7 -30 -5 -14 -4 -15 5 -7 7 7 11 20 8 30 -3
11 -5 14 -6 7z"/>
<path d="M753 333 c9 -2 23 -2 30 0 6 3 -1 5 -18 5 -16 0 -22 -2 -12 -5z"/>
<path d="M794 316 c-20 -23 -20 -24 -3 -23 11 1 19 9 19 18 0 10 8 20 18 22
12 3 13 5 2 6 -8 0 -24 -10 -36 -23z"/>
<path d="M678 273 c7 -3 16 -2 19 1 4 3 -2 6 -13 5 -11 0 -14 -3 -6 -6z"/>
<path d="M785 268 c6 -14 2 -18 -16 -19 -19 -1 -20 -2 -5 -6 25 -7 44 13 27
30 -10 10 -11 9 -6 -5z"/>
<path d="M831 267 c-1 -11 -6 -15 -13 -11 -7 5 -8 3 -3 -5 10 -16 29 2 22 21
-4 8 -6 7 -6 -5z"/>
<path d="M851 264 c0 -11 3 -14 6 -6 3 7 2 16 -1 19 -3 4 -6 -2 -5 -13z"/>
<path d="M870 1206 c0 -2 8 -10 18 -17 15 -13 16 -12 3 4 -13 16 -21 21 -21
13z"/>
<path d="M1102 1174 c-13 -20 -19 -33 -13 -30 16 10 53 66 44 66 -4 0 -18 -16
-31 -36z"/>
<path d="M1310 1144 c46 -41 59 -76 39 -102 -8 -10 -4 -8 8 5 13 13 19 30 16
42 -7 27 -68 91 -87 91 -10 0 -2 -13 24 -36z"/>
<path d="M280 1159 c61 -25 74 -59 39 -103 -20 -26 -20 -28 -4 -46 13 -15 15
-23 7 -33 -7 -8 -7 -18 -2 -27 8 -12 10 -11 10 6 0 12 10 34 22 50 12 16 16
24 7 17 -9 -7 -20 -9 -29 -3 -12 8 -11 14 8 39 12 17 22 37 22 45 0 21 -58 66
-83 65 -21 0 -21 -1 3 -10z"/>
<path d="M1240 1109 c0 -16 37 -56 44 -48 2 2 -7 18 -20 34 -16 20 -24 25 -24
14z"/>
<path d="M261 1074 c-12 -15 -21 -31 -21 -37 0 -12 -1 -13 29 31 27 38 21 43
-8 6z"/>
<path d="M1088 1083 c7 -3 16 -2 19 1 4 3 -2 6 -13 5 -11 0 -14 -3 -6 -6z"/>
<path d="M1230 1040 c11 -16 25 -32 31 -35 5 -4 6 -12 3 -18 -5 -9 -4 -9 6 0
10 10 7 19 -16 47 -36 42 -53 47 -24 6z"/>
<path d="M420 1050 c-13 -8 -12 -10 3 -10 9 0 17 5 17 10 0 12 -1 12 -20 0z"/>
</g>
</svg>
