<?xml version="1.0" standalone="no"?>
<!DOCTYPE svg PUBLIC "-//W3C//DTD SVG 20010904//EN"
 "http://www.w3.org/TR/2001/REC-SVG-20010904/DTD/svg10.dtd">
<svg version="1.0" xmlns="http://www.w3.org/2000/svg"
 width="225.000000pt" height="225.000000pt" viewBox="0 0 225.000000 225.000000"
 preserveAspectRatio="xMidYMid meet">

<g transform="translate(0.000000,225.000000) scale(0.100000,-0.100000)"
fill="#000000" stroke="none">
<path d="M520 1341 c-15 -4 2 -7 45 -7 86 1 154 -28 190 -82 36 -53 33 -62
-21 -62 -37 0 -53 6 -81 30 -27 24 -43 30 -80 30 -39 0 -50 -5 -84 -39 -35
-34 -39 -44 -39 -87 1 -58 15 -88 56 -115 54 -35 150 -17 174 34 9 19 9 20 -2
7 -28 -33 -64 -50 -106 -50 -37 0 -50 6 -78 34 -30 30 -34 40 -34 86 0 46 4
56 34 86 29 29 41 34 81 34 38 0 52 -5 77 -30 26 -27 36 -30 88 -30 l59 0 -11
32 c-32 92 -168 157 -268 129z"/>
<path d="M988 1336 c-26 -7 -62 -24 -81 -39 -39 -29 -78 -100 -76 -138 1 -17
4 -13 10 15 21 88 78 140 175 158 108 20 215 -29 255 -117 23 -49 24 -133 4
-183 -31 -73 -81 -108 -185 -129 l-65 -13 58 5 c132 12 217 101 217 227 -1
102 -63 183 -162 213 -61 18 -87 18 -150 1z"/>
<path d="M455 1318 c-71 -39 -109 -108 -109 -198 0 -95 38 -161 119 -203 51
-26 165 -29 210 -5 67 36 125 126 125 194 0 24 -1 24 -115 24 l-115 0 0 -35 0
-35 53 2 52 2 -47 3 c-43 4 -48 7 -48 29 0 24 0 24 105 24 117 0 115 1 94 -71
-15 -47 -61 -104 -102 -126 -47 -25 -161 -23 -212 4 -76 39 -109 98 -109 194
0 57 4 74 30 115 17 29 46 58 69 71 22 13 36 23 30 23 -5 -1 -19 -6 -30 -12z"/>
<path d="M1423 1285 c-12 -8 -24 -28 -28 -44 -3 -17 -14 -31 -26 -34 -25 -7
-25 -37 1 -44 18 -5 20 -14 20 -79 0 -72 1 -74 25 -74 24 0 25 2 25 75 l0 75
30 0 c25 0 30 4 30 25 0 21 -5 25 -30 25 -33 0 -35 2 -19 32 8 15 17 18 35 14
17 -5 26 -2 31 10 12 33 -55 46 -94 19z"/>
<path d="M1583 1274 c-6 -17 14 -36 32 -31 6 2 11 13 13 25 3 17 -2 22 -18 22
-11 0 -23 -7 -27 -16z m35 -5 c-2 -6 -8 -10 -13 -10 -5 0 -11 4 -13 10 -2 6 4
11 13 11 9 0 15 -5 13 -11z"/>
<path d="M1758 1263 c-11 -3 -18 -14 -18 -29 0 -17 -5 -24 -20 -24 -13 0 -20
-7 -20 -20 0 -13 7 -20 20 -20 17 0 19 -8 22 -66 3 -59 6 -69 30 -87 18 -14
34 -18 53 -13 33 8 30 38 -5 46 -23 5 -25 11 -28 63 l-3 57 31 0 c23 0 30 4
30 20 0 16 -7 20 -30 20 -27 0 -30 3 -30 30 0 17 -3 29 -7 29 -5 -1 -16 -3
-25 -6z"/>
<path d="M992 1230 c-78 -48 -78 -180 0 -221 19 -10 19 -8 -5 14 -48 46 -58
95 -31 153 20 42 59 64 115 64 33 0 47 -6 75 -34 30 -30 34 -40 34 -85 0 -42
-5 -56 -29 -83 -23 -26 -39 -33 -82 -39 l-54 -6 49 -2 c44 -1 52 3 87 38 35
35 39 44 39 91 0 47 -4 56 -39 91 -33 33 -45 39 -82 39 -26 0 -57 -8 -77 -20z"/>
<path d="M1580 1110 l0 -100 25 0 25 0 0 100 0 100 -25 0 -25 0 0 -100z"/>
<path d="M835 1066 c8 -76 80 -149 156 -161 32 -5 31 -5 -6 8 -82 27 -124 72
-145 153 l-10 39 5 -39z"/>
<path d="M1660 920 c0 -19 7 -20 110 -20 103 0 110 1 110 20 0 19 -7 20 -110
20 -103 0 -110 -1 -110 -20z m210 0 c0 -6 -40 -10 -100 -10 -60 0 -100 4 -100
10 0 6 40 10 100 10 60 0 100 -4 100 -10z"/>
</g>
</svg>
