<svg viewBox="0 0 449.39 59.42" xmlns="http://www.w3.org/2000/svg" data-name="Livello 2" id="Livello_2">
  <defs>
    <style>
      .cls-1 {
        fill: #060606;
      }

      .cls-2 {
        fill: #fff;
      }
    </style>
  </defs>
  <g data-name="Livello 1" id="Livello_1-2">
    <g>
      <g data-name="Capa 1" id="Capa_1">
        <g data-name="Raggruppa 1" id="Raggruppa_1">
          <path d="M275.37,57.08c-1.81-.19-3.6-.32-5.38-.54-3.92-.38-7.71-1.57-11.14-3.52-4.89-2.81-7.98-7.95-8.11-13.6-.32-7.95,2.22-15.71,7.19-21.96,6.41-8.52,15.85-14.22,26.37-16.01,7.27-1.24,14.66-1.51,21.99-.81,3.03.14,6,.7,8.9,1.7,5.68,1.97,9.41,7.44,9.14,13.44l-21.04,2.87s-.14-.11-.14-.16c-.38-3.19-3-5.62-6.22-5.79-7-1.43-14.25,1.08-18.88,6.54-2.84,3.6-4.81,7.79-5.65,12.3-.54,2.08-.7,4.3-.41,6.46.35,2.49,1.97,4.6,4.25,5.62,2.87,1.24,6.03,1.76,9.17,1.38,4.41-.41,8.71-1.57,12.71-3.41.27-.11.49-.32.62-.57.51-1.51,1-3.08,1.51-4.73h-13.85c.11-.38.14-.62.22-.89,1.05-3.3,2.08-6.57,3.14-9.87.05-.49.51-.84,1.03-.78h30.91c.19,0,.38,0,.65.05-.08.32-.14.59-.22.89-2.3,7.25-4.6,14.49-6.92,21.74-.14.51-.51.97-1.03,1.16-5.81,2.87-11.95,5.11-18.25,6.63-3.87.78-7.82,1.11-11.71,1.62-.54.08-1.11.14-1.62.19h-7.19l-.03.03Z" class="cls-2" data-name="Tracciato 1" id="Tracciato_1"></path>
          <path d="M449.15,54.89c-1-6.84-2-13.74-3-20.58-1.38-9.6-2.81-19.17-4.22-28.75-.22-1.41-.43-2.81-.65-4.27h-21.99c-.59-.05-1.19.24-1.54.73-13.9,17.74-27.75,35.51-41.67,53.19-.19.24-.35.46-.57.81.24,0,.35.05.46.05h20.34c.41-.05.76-.3,1-.62,1.84-2.57,3.62-5.17,5.41-7.76.27-.43.76-.7,1.27-.65h21.99c.3,0,.57,0,.89.05.19,3.03.38,6,.57,9.01h20.39c.51,0,1.05,0,1.57.05v-.73c-.08-.16-.14-.35-.16-.51M411.42,35.23l13.47-19.39.22.05c.38,6.44.73,12.85,1.11,19.34h-14.79Z" class="cls-2" data-name="Tracciato 2" id="Tracciato_2"></path>
          <path d="M218.85,21.82h32.48c-.11.41-.19.78-.3,1.11-.97,3-1.95,6-2.84,9.01-.08.62-.65,1.08-1.24,1h-.05c-10.17,0-20.39,0-30.56-.05-.62-.11-1.22.32-1.33.92h0c-.89,3.03-1.87,6-2.81,8.95-.11.3-.16.57-.27.95h36.07c-.27.84-.49,1.57-.73,2.33-1,3.11-2,6.22-2.95,9.33-.08.51-.54.87-1.08.78h-55.41c-.24,0-.46,0-.84-.05.08-.35.16-.62.24-.89,5.62-17.66,11.22-35.34,16.85-53,.19-.59.41-.87,1.14-.87h55.22c-.08.35-.16.62-.24.89-1.05,3.27-2.08,6.52-3.08,9.79-.08.59-.62,1.03-1.22.95h0c-10.98,0-21.99,0-32.94-.05-.73-.14-1.43.38-1.57,1.14v.05c-.76,2.54-1.57,5.06-2.43,7.71" class="cls-2" data-name="Tracciato 3" id="Tracciato_3"></path>
          <path d="M389.17,1.35c-.62,2-1.22,3.89-1.87,5.81-.51,1.62-1.05,3.25-1.51,4.89-.08.57-.59.97-1.19.89h0c-11.01,0-22.01,0-33.05-.05-.7-.14-1.38.38-1.51,1.08h0c-.73,2.6-1.57,5.11-2.43,7.76h32.53c-.92,2.89-1.81,5.68-2.7,8.41-.3.87-.35,2.06-.95,2.51-.65.43-1.81.19-2.76.19h-29.67l-3.46,10.79h36.05c-.11.38-.16.62-.24.89-1.14,3.6-2.27,7.17-3.38,10.76-.08.54-.59.92-1.16.84h-56.28c.14-.41.22-.76.32-1.11,5.6-17.6,11.2-35.21,16.79-52.81.22-.65.46-.92,1.19-.92h54.27c.27,0,.51,0,.92.05" class="cls-2" data-name="Tracciato 4" id="Tracciato_4"></path>
          <path d="M155.44,42.75h32.88c-.22.62-.38,1.19-.54,1.7-1.16,3.62-2.33,7.27-3.49,10.9-.08.49-.51.84-1,.76h-53.11c.11-.32.16-.59.27-.89,5.62-17.69,11.22-35.37,16.85-53.03.16-.49.27-.92,1-.92h19.69c.19,0,.35,0,.62.05l-13.17,41.37" class="cls-2" data-name="Tracciato 5" id="Tracciato_5"></path>
        </g>
        <g data-name="Raggruppa 1-2" id="Raggruppa_1-2">
          <path d="M275.37,57.08c-1.81-.19-3.6-.32-5.38-.54-3.92-.38-7.71-1.57-11.14-3.52-4.89-2.81-7.98-7.95-8.11-13.6-.32-7.95,2.22-15.71,7.19-21.96,6.41-8.52,15.85-14.22,26.37-16.01,7.27-1.24,14.66-1.51,21.99-.81,3.03.14,6,.7,8.9,1.7,5.68,1.97,9.41,7.44,9.14,13.44l-21.04,2.87s-.14-.11-.14-.16c-.38-3.19-3-5.62-6.22-5.79-7-1.43-14.25,1.08-18.88,6.54-2.84,3.6-4.81,7.79-5.65,12.3-.54,2.08-.7,4.3-.41,6.46.35,2.49,1.97,4.6,4.25,5.62,2.87,1.24,6.03,1.76,9.17,1.38,4.41-.41,8.71-1.57,12.71-3.41.27-.11.49-.32.62-.57.51-1.51,1-3.08,1.51-4.73h-13.85c.11-.38.14-.62.22-.89,1.05-3.3,2.08-6.57,3.14-9.87.05-.49.51-.84,1.03-.78h30.91c.19,0,.38,0,.65.05-.08.32-.14.59-.22.89-2.3,7.25-4.6,14.49-6.92,21.74-.14.51-.51.97-1.03,1.16-5.81,2.87-11.95,5.11-18.25,6.63-3.87.78-7.82,1.11-11.71,1.62-.54.08-1.11.14-1.62.19h-7.19l-.03.03Z" class="cls-1" data-name="Tracciato 1-2" id="Tracciato_1-2"></path>
          <path d="M449.15,54.89c-1-6.84-2-13.74-3-20.58-1.38-9.6-2.81-19.17-4.22-28.75-.22-1.41-.43-2.81-.65-4.27h-21.99c-.59-.05-1.19.24-1.54.73-13.9,17.74-27.75,35.51-41.67,53.19-.19.24-.35.46-.57.81.24,0,.35.05.46.05h20.34c.41-.05.76-.3,1-.62,1.84-2.57,3.62-5.17,5.41-7.76.27-.43.76-.7,1.27-.65h21.99c.3,0,.57,0,.89.05.19,3.03.38,6,.57,9.01h20.39c.51,0,1.05,0,1.57.05v-.73c-.08-.16-.14-.35-.16-.51M411.42,35.23l13.47-19.39.22.05c.38,6.44.73,12.85,1.11,19.34h-14.79Z" class="cls-1" data-name="Tracciato 2-2" id="Tracciato_2-2"></path>
          <path d="M218.85,21.82h32.48c-.11.41-.19.78-.3,1.11-.97,3-1.95,6-2.84,9.01-.08.62-.65,1.08-1.24,1h-.05c-10.17,0-20.39,0-30.56-.05-.62-.11-1.22.32-1.33.92h0c-.89,3.03-1.87,6-2.81,8.95-.11.3-.16.57-.27.95h36.07c-.27.84-.49,1.57-.73,2.33-1,3.11-2,6.22-2.95,9.33-.08.51-.54.87-1.08.78h-55.41c-.24,0-.46,0-.84-.05.08-.35.16-.62.24-.89,5.62-17.66,11.22-35.34,16.85-53,.19-.59.41-.87,1.14-.87h55.22c-.08.35-.16.62-.24.89-1.05,3.27-2.08,6.52-3.08,9.79-.08.59-.62,1.03-1.22.95h0c-10.98,0-21.99,0-32.94-.05-.73-.14-1.43.38-1.57,1.14v.05c-.76,2.54-1.57,5.06-2.43,7.71" class="cls-1" data-name="Tracciato 3-2" id="Tracciato_3-2"></path>
          <path d="M389.17,1.35c-.62,2-1.22,3.89-1.87,5.81-.51,1.62-1.05,3.25-1.51,4.89-.08.57-.59.97-1.19.89h0c-11.01,0-22.01,0-33.05-.05-.7-.14-1.38.38-1.51,1.08h0c-.73,2.6-1.57,5.11-2.43,7.76h32.53c-.92,2.89-1.81,5.68-2.7,8.41-.3.87-.35,2.06-.95,2.51-.65.43-1.81.19-2.76.19h-29.67l-3.46,10.79h36.05c-.11.38-.16.62-.24.89-1.14,3.6-2.27,7.17-3.38,10.76-.08.54-.59.92-1.16.84h-56.28c.14-.41.22-.76.32-1.11,5.6-17.6,11.2-35.21,16.79-52.81.22-.65.46-.92,1.19-.92h54.27c.27,0,.51,0,.92.05" class="cls-1" data-name="Tracciato 4-2" id="Tracciato_4-2"></path>
          <path d="M155.44,42.75h32.88c-.22.62-.38,1.19-.54,1.7-1.16,3.62-2.33,7.27-3.49,10.9-.08.49-.51.84-1,.76h-53.11c.11-.32.16-.59.27-.89,5.62-17.69,11.22-35.37,16.85-53.03.16-.49.27-.92,1-.92h19.69c.19,0,.35,0,.62.05l-13.17,41.37" class="cls-1" data-name="Tracciato 5-2" id="Tracciato_5-2"></path>
        </g>
      </g>
      <g data-name="Raggruppa 5" id="Raggruppa_5">
        <path d="M26.57,19.81C17.99,15.24,9.12,11.21,0,7.79c.77.75,49.44,49.27,51.8,51.62,0,0,36.4-49.6,83.13-59.42C86.51.84,63.31,5.75,26.57,19.81M53.66,41.15c-5.32-5.32-11.16-10.08-17.45-14.23,15.41-8.28,24.9-13.02,57.74-16.75-11.68,5.4-29.97,21.83-40.29,30.98" data-name="Tracciato 14" id="Tracciato_14"></path>
      </g>
    </g>
  </g>
</svg>